<svg width="70" height="65" viewBox="0 0 70 65" fill="none" xmlns="http://www.w3.org/2000/svg">
<path d="M62.494 39.7666H7.50608C5.61721 39.7666 4.08563 41.2708 4.08563 43.1271V46.0706C4.08563 46.8008 4.68851 47.3931 5.43234 47.3931H64.5682C65.3115 47.3931 65.9144 46.8008 65.9144 46.0706V43.1271C65.9144 41.2708 64.3834 39.7666 62.494 39.7666Z" fill="#912C2C"/>
<path d="M62.4909 39.7666H57.8795V47.3931H64.567C65.3116 47.3931 65.9144 46.8009 65.9144 46.0701V43.1269C65.9144 41.2707 64.382 39.7666 62.4909 39.7666Z" fill="#7C1E1E"/>
<path d="M64.8105 35.6812C66.5909 35.6812 68.0917 37.1525 68.0933 38.9997C68.0949 41.6377 65.0729 43.0335 61.5624 42.5222C58.2835 42.0449 58.2423 40.5433 54.9216 40.5433C51.6014 40.5433 51.6014 42.5222 48.2807 42.5222C44.9605 42.5222 44.9605 40.5433 41.6403 40.5433C38.3201 40.5433 38.3201 42.5222 35 42.5222C31.6793 42.5222 31.6798 40.5433 28.3591 40.5433C25.0389 40.5433 25.0389 42.5222 21.7187 42.5222C18.3986 42.5222 18.3986 40.5433 15.0778 40.5433C11.7577 40.5433 11.7159 42.0443 8.43749 42.5222C4.92653 43.0335 1.90499 41.6377 1.90662 38.9997C1.9077 37.1525 3.40845 35.6812 5.18885 35.6812H64.8105Z" fill="#A0E557"/>
<path d="M68.0935 38.9997C68.0918 37.1525 66.5834 35.6812 64.7939 35.6812H59.7859V42.0956C60.2593 42.2687 60.8183 42.4192 61.5292 42.5222C65.0575 43.0335 68.0951 41.6377 68.0935 38.9997Z" fill="#93CC4A"/>
<path d="M66.6577 46.7124H3.3423C1.79701 46.7124 0.544739 47.9422 0.544739 49.4586C0.544739 57.3437 7.05631 63.7358 15.0888 63.7358H54.9111C62.9436 63.7358 69.4552 57.3437 69.4552 49.4586C69.4552 47.9422 68.2024 46.7124 66.6577 46.7124Z" fill="#EFA335"/>
<path d="M66.6585 46.7124H61.4515V52.2052C61.4515 58.5731 56.1937 63.7358 49.7083 63.7358H54.9152C62.9455 63.7358 69.4552 57.3434 69.4552 49.4585C69.4552 47.9422 68.2028 46.7124 66.6585 46.7124Z" fill="#FD8F31"/>
<path d="M62.4939 32.1402H7.50611C5.61669 32.1402 4.08563 30.6361 4.08563 28.7799V25.8367C4.08563 25.1059 4.68851 24.5137 5.43181 24.5137H64.5682C65.3115 24.5137 65.9144 25.1059 65.9144 25.8367V28.7799C65.9144 30.6361 64.3834 32.1402 62.4939 32.1402Z" fill="#FC4E51"/>
<path d="M64.5676 24.5137H57.9102V30.1029C57.9102 31.2278 56.982 32.1402 55.8364 32.1402H62.4938C64.3827 32.1402 65.9143 30.6361 65.9143 28.7799V25.8367C65.9138 25.1059 65.3109 24.5137 64.5676 24.5137Z" fill="#EA3942"/>
<path d="M65.3664 31.5957H4.69804C3.32223 31.5957 2.15396 32.7057 2.17942 34.0613C2.20435 35.3764 3.29351 36.4346 4.63356 36.4346H43.1801C43.8065 36.4346 44.4117 36.6552 44.8875 37.0569L50.3582 41.6778C51.9562 43.0276 54.3415 42.9261 55.8165 41.4465L60.0404 37.2086C60.5335 36.7134 61.2081 36.4346 61.912 36.4346H65.3025C66.6778 36.4346 67.8466 35.3251 67.8206 33.9689C67.7956 32.6539 66.7065 31.5957 65.3664 31.5957Z" fill="#FCCF3F"/>
<path d="M35 0.408691C2.91982 0.420485 0.544739 21.3662 0.544739 24.3324C0.544739 25.8619 1.79755 27.1014 3.3423 27.1014H66.6577C68.2024 27.1014 69.4552 25.8619 69.4552 24.3324C69.4552 21.3662 67.0801 0.420485 35 0.408691Z" fill="#EFA335"/>
<path d="M69.4547 24.2536C69.4547 24.245 69.4541 24.2359 69.4541 24.2268C69.4541 24.207 69.4536 24.1866 69.4531 24.1657C69.4525 24.1561 69.4525 24.1459 69.452 24.1357C69.4514 24.1142 69.4509 24.0917 69.4498 24.0692C69.4498 24.0585 69.4493 24.0483 69.4487 24.0376C69.4476 24.0129 69.4466 23.9877 69.4455 23.962C69.4449 23.9523 69.4444 23.9432 69.4438 23.9341C69.4428 23.9036 69.4406 23.8725 69.439 23.8403C69.4384 23.8344 69.4384 23.829 69.4379 23.8237C69.426 23.6232 69.4065 23.39 69.3778 23.1289C69.3778 23.1284 69.3778 23.1278 69.3778 23.1278C68.7895 17.776 64.2019 0.419413 35 0.408691C33.6101 0.409227 32.2772 0.449971 30.9967 0.52556C50.4313 1.67816 57.5365 11.1515 60.0795 17.8848C61.1492 20.7181 59.0086 23.7341 55.9533 23.7341H3.3423C2.19024 23.7341 1.2012 23.0442 0.772227 22.0594C0.594028 23.1101 0.544739 23.9068 0.544739 24.3324C0.544739 25.8619 1.79755 27.1014 3.3423 27.1014H66.6577C68.2024 27.1014 69.4552 25.8619 69.4552 24.3324C69.4552 24.3078 69.4552 24.281 69.4547 24.2536Z" fill="#FD8F31"/>
<path d="M65.3592 31.5957H59.7859V37.4518L60.0175 37.22C60.512 36.7239 61.1886 36.4445 61.8946 36.4445H65.2951C66.6744 36.4445 67.8467 35.3322 67.8206 33.9738C67.7956 32.656 66.7032 31.5957 65.3592 31.5957Z" fill="#EFC03C"/>
<path d="M33.8387 0.00556432C26.2328 0.15901 18.35 1.39672 11.824 5.4837C11.747 6.08529 12.4871 6.34337 12.897 5.95876C17.3029 3.32053 22.3839 2.01653 27.4622 1.38351C34.7632 0.610326 42.2544 0.784315 49.3629 2.71554C55.6464 4.42321 61.6414 7.95221 65.2472 13.4201C67.5006 16.7882 68.9734 20.791 68.9118 24.8515C68.5648 26.2593 66.8306 26.8786 65.5017 26.5711C44.5747 26.5242 23.6439 26.6697 2.71926 26.4939C1.20153 26.109 0.69214 24.2096 1.14697 22.8759C1.82722 17.3761 4.85401 12.2786 8.98481 8.56118C8.83807 7.98075 8.08817 7.91831 7.78321 8.40319C3.22794 12.6405 0.0987097 18.6035 0.102928 24.8555C0.364133 26.4634 2.00684 27.6615 3.63461 27.5585C3.55186 28.7379 3.63794 29.9967 4.27833 31.0297C2.37973 31.3145 1.00179 33.6821 2.06849 35.3538C2.56229 35.7365 2.63737 36.551 2.05902 36.8913C0.809379 38.617 1.5362 41.315 3.45073 42.2494C3.99798 43.2224 3.37195 44.3532 3.67144 45.396C3.77238 45.7736 3.63663 46.3268 3.13198 46.1934C1.09735 46.2948 -0.376382 48.4719 0.0849911 50.3802C0.407083 57.5452 6.78573 63.9596 14.1029 64.1965C17.8919 64.4076 21.6882 64.1402 25.4803 64.244C35.9858 64.2121 46.4982 64.389 56.999 64.1224C63.598 63.2936 69.2109 57.6554 69.8596 51.1174C70.1161 49.5483 69.9332 47.5628 68.3794 46.6933C67.7886 46.328 67.0831 46.1572 66.3881 46.1793C66.3722 44.8993 66.4161 43.5771 66.3524 42.3217C68.6621 41.3824 69.3252 37.9576 67.4224 36.3119C67.2526 35.801 67.9826 35.6185 68.0544 35.1373C68.7624 33.5614 67.7587 31.5154 66.0626 31.0967C65.6293 30.4632 66.4533 29.8005 66.3567 29.1054C66.4 28.5916 66.3705 28.0735 66.3681 27.5607C68.6059 27.7741 70.5132 25.3844 69.8753 23.2818C69.0185 14.5898 62.7155 6.90211 54.6326 3.57801C48.1357 0.696704 40.8952 -0.0748303 33.8387 0.00556432ZM4.99491 27.5054C25.1229 27.5651 45.251 27.5148 65.3791 27.5318C65.7676 29.212 64.8963 31.4562 62.952 31.6379C61.0404 31.8938 59.1078 31.5611 57.1878 31.7063C40.4055 31.6669 23.6164 31.7981 6.83834 31.6352C5.13455 31.2613 4.11763 29.1745 4.71326 27.6196C4.78397 27.5426 4.8891 27.4971 4.99491 27.5054ZM65.2426 31.9977C66.9668 31.8292 68.0986 34.3302 66.6522 35.3858C65.2661 36.3919 63.4761 35.7072 61.9002 35.8787C60.3737 35.9298 59.2679 37.0827 58.3363 38.1382C56.9833 39.472 55.7911 41.1159 54.0266 41.9387C52.367 42.4539 50.6576 41.5455 49.5638 40.3499C47.7452 38.9335 46.1811 37.0586 44.0535 36.0625C41.924 35.6248 39.7526 36.0862 37.6041 35.8998C26.3863 35.8449 15.1556 36.0368 3.94605 35.7944C2.41073 35.2896 2.25107 32.7916 3.82824 32.216C5.15231 31.5777 6.37115 32.7617 7.69967 32.6504C26.2103 32.6454 44.7258 32.7364 63.238 32.6075C63.9133 32.4267 64.5284 32.0224 65.2426 31.9977ZM3.58613 36.6866C6.79379 37.125 10.0429 36.7043 13.2574 36.8668C23.3776 36.8824 33.498 36.8066 43.6178 36.9137C45.3376 37.5331 46.3613 39.151 47.8426 40.1341C48.5252 40.7246 49.3064 41.3425 49.9289 41.9163C47.9663 42.2479 45.8975 41.7735 44.3133 40.5861C41.9608 39.4669 39.1258 40.1411 37.088 41.596C35.0275 42.4952 32.6629 41.7714 30.924 40.5343C28.5907 39.4744 25.8021 40.1865 23.8105 41.5973C21.7931 42.4701 19.4404 41.8118 17.7381 40.5781C15.2526 39.4177 12.3474 40.2335 10.1019 41.545C7.76863 42.3953 4.78434 42.4317 2.93591 40.5797C2.05748 39.4022 2.32811 37.4962 3.58613 36.6866ZM66.2162 36.7782C67.6918 37.2328 67.9136 39.3659 67.0955 40.4762C65.7975 42.1242 63.3391 42.26 61.4376 41.9643C60.0748 41.7002 58.669 41.187 57.5959 40.3531C57.8353 39.864 58.4523 39.6431 58.7355 39.1585C59.7092 38.0883 60.8404 36.646 62.4835 36.8403C63.7272 36.8497 64.9796 36.9517 66.2162 36.7782ZM15.0797 40.9718C16.6677 40.905 18.0094 41.8267 19.3407 42.5248C21.6202 43.4343 24.2627 42.7972 26.1956 41.4081C28.1619 40.5169 30.4803 41.1 32.1667 42.3025C34.4833 43.5356 37.3885 42.8971 39.4273 41.4233C41.4528 40.4952 43.8548 41.1322 45.5812 42.3887C47.1911 43.1296 49.1047 43.1237 50.7473 42.4845C52.6855 43.6116 55.3897 42.949 56.6911 41.1759C58.7868 42.1093 60.9516 43.3139 63.3423 43.0385C64.0408 43.0041 64.7334 42.8901 65.4124 42.7276C65.3617 43.862 65.5122 45.1895 65.3398 46.207C61.6885 46.2831 58.0276 46.0281 54.3838 46.353C54.2668 46.9617 54.8728 47.3661 55.4248 47.1742C59.4394 47.2377 63.5091 46.9856 67.5079 47.3133C68.9525 47.8616 69.2182 49.6518 68.8967 50.9694C68.2478 57.6214 62.0972 63.3072 55.2727 63.273C51.4303 63.3756 47.5673 63.2127 43.7167 63.2852C33.5427 63.2554 23.3631 63.4164 13.193 63.1795C6.88844 62.4227 1.53266 56.9202 1.07569 50.6878C0.831249 49.3715 1.21611 47.536 2.77017 47.2647C4.43507 46.9079 6.14525 47.3255 7.82951 47.1592C22.0306 47.1311 36.2322 47.2501 50.4329 47.0888C50.7059 46.5624 50.2067 46.0227 49.6521 46.1769C35.8686 46.2414 22.0784 46.1858 8.29234 46.2044C7.06717 46.2044 5.84201 46.2044 4.61685 46.2044C4.65222 45.0809 4.54716 43.7744 4.66749 42.7618C7.54701 43.5555 10.5866 42.6412 13.1139 41.2533C13.75 41.0593 14.4147 40.9722 15.0797 40.9718V40.9718Z" fill="black"/>
</svg>
