<svg width="51" height="78" viewBox="0 0 51 78" fill="none" xmlns="http://www.w3.org/2000/svg">
<path d="M4.64532 21.9845L7.25193 44.1409L9.85853 46.7475L12.4653 76.7241H38.5318L41.1384 46.7475L43.745 44.1409L46.3516 21.9845H4.64532Z" fill="#E73835"/>
<path d="M50.2617 15.4679H0.735291V21.9845H50.2617V15.4679Z" fill="#7A0E1E"/>
<path d="M26.8017 15.4679H24.1951V6.3446C24.1938 5.87796 24.4428 5.44667 24.8468 5.21335L33.9701 0L35.2734 2.26264L26.8017 7.10064V15.4679Z" fill="#4F5052"/>
<path d="M26.8017 76.7241L31.0597 70.3377C34.8263 64.6877 35.001 57.3736 31.5067 51.5503C27.8665 45.482 28.221 37.8238 32.4046 32.1177L39.8349 21.9844H26.8017L22.4212 31.3682C19.4562 37.7232 19.8407 45.1352 23.4482 51.1488C27.1614 57.3343 27.456 64.9887 24.2302 71.4415L21.5884 76.7239L26.8017 76.7241Z" fill="#F5F5F7"/>
<path d="M33.6895 0.810547C30.863 2.5848 27.8303 4.09941 25.0055 5.88222C24.4855 6.82708 24.9981 7.94185 24.8046 8.96826C24.8046 10.9033 24.8046 12.8383 24.8046 14.7733C16.6839 14.8243 8.54461 14.6762 0.435649 14.8475C-0.352632 15.4685 0.201459 16.6114 0.0466174 17.4691C0.135122 19.1082 -0.161205 20.8147 0.19604 22.4063C0.917996 23.0007 1.92857 22.5517 2.77578 22.6507C3.5609 22.324 4.23817 23.0783 4.1923 23.8335C4.97237 30.7012 5.73418 37.588 6.64554 44.4313C7.3664 45.4982 8.6136 46.1395 9.21337 47.2804C10.1112 57.1993 10.8561 67.1476 11.8518 77.0481C12.4979 77.8079 13.6103 77.2523 14.4726 77.4178C22.5881 77.372 30.7238 77.5119 38.827 77.347C39.6417 76.7083 39.1495 75.5227 39.4149 74.6347C40.2138 65.4473 41.0131 56.2598 41.8118 47.0723C42.6072 46.028 43.9386 45.3701 44.4412 44.1356C45.2977 36.9932 46.1219 29.847 46.9653 22.7031C48.2251 22.4597 49.6194 23.0528 50.7687 22.4361C51.2668 21.5583 50.78 20.5038 50.9434 19.5491C50.8654 18.0591 51.1649 16.5038 50.8077 15.0552C50.0033 14.4018 48.8889 14.9671 47.9434 14.7742C40.693 14.7742 33.4427 14.7742 26.1923 14.7742C26.1923 12.0985 26.1923 9.42267 26.1923 6.74689C28.9245 5.17688 31.7017 3.61886 34.4059 2.04163C34.1501 1.65438 34.0721 1.08245 33.6895 0.810547ZM1.7337 16.1616C17.6784 16.1616 33.623 16.1616 49.5677 16.1616C49.5677 17.8713 49.5677 19.581 49.5677 21.2907C33.5214 21.2907 17.4752 21.2907 1.42891 21.2907C1.42891 19.581 1.42891 17.8713 1.42891 16.1616H1.58131H1.7337ZM40.3414 22.678C42.0847 22.678 43.8281 22.678 45.5714 22.678C44.7425 29.721 43.9138 36.7641 43.0851 43.8071C42.3079 44.8438 40.9763 45.4912 40.4697 46.6951C39.5658 56.4694 38.7617 66.2525 37.8953 76.0301C34.6326 76.0301 31.3698 76.0301 28.1071 76.0301C30.5306 72.2322 33.6312 68.6209 34.3652 64.0414C35.3073 59.295 34.1794 54.2625 31.5661 50.236C28.4695 44.4249 29.3069 36.8434 33.5079 31.7892C35.7342 28.7522 37.9606 25.7151 40.1869 22.678H40.3393H40.3414ZM5.76866 22.6784C12.4137 22.6784 19.0588 22.6784 25.7038 22.6784C23.7172 27.4525 20.7303 31.9199 19.9687 37.1049C19.1701 42.4198 20.4628 47.9574 23.4086 52.4889C26.6973 58.5543 26.4941 66.2695 23.059 72.2303C22.426 73.497 21.793 74.7638 21.1599 76.0304C18.4738 76.0304 15.7877 76.0304 13.1016 76.0304C12.2093 66.1797 11.463 56.2986 10.4802 46.4669C9.78004 45.331 8.33026 44.7208 7.87604 43.459C7.05927 36.5321 6.24259 29.6052 5.42577 22.6784C5.54006 22.6784 5.65436 22.6784 5.76866 22.6784ZM27.4379 22.6784C31.111 22.6784 34.784 22.6784 38.457 22.6784C35.7754 26.5573 32.6699 30.1465 30.285 34.2209C27.311 39.9375 27.7442 47.2032 31.292 52.5705C34.4295 58.2522 33.8131 65.6986 29.8866 70.8492C28.7346 72.5763 27.5826 74.3033 26.4307 76.0304C25.1891 76.0304 23.9475 76.0304 22.7059 76.0304C24.6923 72.1992 26.8338 68.2545 27.0886 63.8554C27.5403 58.8918 26.1136 53.8753 23.4258 49.7042C20.2661 43.769 20.4327 36.303 23.6313 30.4179C24.8355 27.8381 26.0396 25.2582 27.2439 22.6784H27.3963H27.4379Z" fill="black"/>
</svg>
