<svg width="230" height="300" viewBox="0 0 230 300" fill="none" xmlns="http://www.w3.org/2000/svg">
<path d="M101.734 190.381L90.3922 191.487C86.4581 191.87 82.861 189.145 82.3103 185.348L57.5324 14.1979C56.8074 9.18327 59.963 4.63573 64.5547 4.11986L82.2824 2.13308C86.8927 1.61488 91.0638 5.35377 91.5518 10.4079L108.183 182.812C108.552 186.635 105.675 189.997 101.734 190.381Z" fill="#FCCF3F"/>
<path d="M72.2882 203.384L61.0227 203.944C57.1142 204.139 53.6217 201.304 53.1825 197.565L33.361 29.0787C32.7801 24.1455 36.0356 19.8721 40.6018 19.6119L58.2087 18.6057C62.7841 18.3454 66.8088 22.2075 67.1504 27.1617L78.8783 196.28C79.1386 200.033 76.199 203.189 72.2882 203.384Z" fill="#EFC03C"/>
<path d="M55.4457 215.175L44.4034 216.446C40.5762 216.887 36.9 214.333 36.1471 210.697L2.3717 47.2363C1.38644 42.461 4.20978 38.0529 8.65972 37.4627L25.8414 35.1878C30.3099 34.5952 34.5902 38.0785 35.3501 42.8979L61.3317 207.778C61.9104 211.445 59.2845 214.731 55.4457 215.175Z" fill="#FCCF3F"/>
<path d="M127.47 190.38L138.812 191.486C142.746 191.87 146.343 189.144 146.894 185.347L171.67 14.1997C172.397 9.18509 169.241 4.63523 164.647 4.12168L146.919 2.13257C142.312 1.6167 138.14 5.35326 137.652 10.4097L121.022 182.812C120.652 186.634 123.527 189.997 127.47 190.38Z" fill="#FCCF3F"/>
<path d="M156.916 203.384L168.182 203.944C172.09 204.139 175.583 201.304 176.022 197.565L195.843 29.0787C196.424 24.1455 193.169 19.8721 188.603 19.6119L170.993 18.6057C166.42 18.3454 162.396 22.2075 162.054 27.1617L150.326 196.28C150.066 200.033 153.003 203.189 156.916 203.384Z" fill="#EFC03C"/>
<path d="M173.756 215.174L184.801 216.445C188.628 216.887 192.304 214.333 193.055 210.697L226.83 47.2387C227.818 42.4634 224.995 38.053 220.545 37.4627L203.363 35.1878C198.894 34.5976 194.614 38.0785 193.854 42.9003L167.87 207.778C167.292 211.445 169.918 214.731 173.756 215.174Z" fill="#FCCF3F"/>
<path d="M118.47 208.845H107.214C103.308 208.845 100.092 205.871 99.9963 202.15L95.7113 34.5861C95.5858 29.6807 99.2155 25.6421 103.784 25.6421H121.382C125.948 25.6421 129.591 29.6807 129.48 34.5861L125.669 202.15C125.585 205.871 122.376 208.845 118.47 208.845Z" fill="#EFC03C"/>
<path d="M118.951 224.26L108.613 228.501C105.025 229.972 100.879 228.494 99.2969 225.166L28.1488 75.4507C26.0691 71.0727 27.7701 66.0442 31.9458 64.2991L48.0446 57.5672C52.225 55.8198 57.1839 58.0692 59.0498 62.5447L122.876 215.488C124.296 218.885 122.541 222.787 118.951 224.26Z" fill="#FCCF3F"/>
<path d="M119.058 250.99L107.897 251.506C104.023 251.685 100.617 248.897 100.247 245.23L83.628 80.3056C83.1424 75.4838 86.4351 71.3197 90.9547 71.0804L108.38 70.1602C112.905 69.9208 116.815 73.7085 117.069 78.5488L125.708 244.049C125.899 247.728 122.936 250.814 119.058 250.99Z" fill="#EFC03C"/>
<path d="M167.215 223.333L178.057 223.819C181.82 223.988 185.194 221.351 185.633 217.886L205.303 62.5543C205.875 58.03 202.773 54.1238 198.402 53.9008L181.545 53.0363C177.167 52.8132 173.298 56.3662 172.948 60.9068L160.906 216.771C160.636 220.247 163.448 223.163 167.215 223.333Z" fill="#EFC03C"/>
<path d="M125.483 248.504L137.262 250.36C141.349 251.006 145.197 248.243 145.897 244.165L173.559 82.5826C174.272 78.4255 171.446 74.4891 167.28 73.8338L151.228 71.3032C147.061 70.6456 143.162 73.5224 142.56 77.6958L119.172 239.952C118.581 244.049 121.393 247.86 125.483 248.504Z" fill="#FCCF3F"/>
<path d="M169.434 101.881C167.078 101.881 164.984 103.348 164.141 105.548C156.496 125.458 137.204 139.595 114.601 139.595C92.0003 139.595 72.7087 125.458 65.0636 105.548C64.2178 103.348 62.1264 101.881 59.7702 101.881H7.83706C4.32823 101.881 1.66291 105.046 2.26011 108.504L34.072 293.038C34.5414 295.754 36.8953 297.737 39.6513 297.737H189.553C192.309 297.737 194.663 295.754 195.132 293.038L226.944 108.504C227.541 105.044 224.876 101.881 221.365 101.881H169.434Z" fill="#FC4E51"/>
<path d="M221.365 101.881H185.658C189.17 101.881 191.833 105.046 191.235 108.504L159.424 293.04C158.954 295.754 156.6 297.737 153.847 297.737H189.553C192.309 297.737 194.663 295.754 195.132 293.04L226.944 108.504C227.541 105.044 224.876 101.881 221.365 101.881Z" fill="#EA3942"/>
<path d="M212.214 193.946H16.9904L23.1668 229.783H206.035L212.214 193.946Z" fill="#F3E8D7"/>
<path d="M212.214 193.946H176.505L170.327 229.783H206.035L212.214 193.946Z" fill="#E5D8C6"/>
<path d="M161.106 212.932C161.106 238.614 140.285 259.435 114.601 259.435C88.919 259.435 68.0984 238.614 68.0984 212.932C68.0984 187.248 88.919 166.43 114.601 166.43C140.285 166.43 161.106 187.248 161.106 212.932Z" fill="#EFA335"/>
<path d="M135.61 171.449C136.883 175.692 137.578 180.189 137.578 184.845C137.578 210.53 116.757 231.348 91.0731 231.348C83.5117 231.348 76.3778 229.531 70.0666 226.329C75.8202 245.478 93.5781 259.435 114.601 259.435C140.285 259.435 161.103 238.614 161.103 212.932C161.106 194.812 150.733 179.122 135.61 171.449Z" fill="#FD8F31"/>
<path d="M114.293 164.338C91.4137 163.994 69.9252 182.371 66.6101 205.02C63.1705 224.783 73.5203 246.335 91.5333 255.739C109.573 265.724 134.102 262.442 148.703 247.577C164.411 232.47 167.901 206.453 156.256 187.886C147.607 173.494 131.149 164.029 114.293 164.338ZM115.525 168.506C136.87 168.516 156.441 186.178 158.725 207.363C161.422 227.005 149.272 247.508 130.643 254.408C112.569 261.591 90.2002 255.226 78.8481 239.358C66.8272 223.458 67.3859 199.376 80.614 184.336C89.1151 174.205 102.276 168.137 115.525 168.506Z" fill="black"/>
<path d="M82.5927 0.0195314C74.9585 1.5041 66.539 0.305212 59.5076 3.978C55.743 6.85338 54.6207 12.1153 55.742 16.5563C48.4854 18.1138 39.8379 15.1952 33.8791 20.7042C30.7503 24.2537 30.7599 29.4415 31.976 33.7682C23.6616 31.9537 15.474 35.0268 7.12368 35.5947C0.905071 37.2656 -1.34344 45.0356 0.941615 50.6011C4.3485 67.0907 7.75557 83.5803 11.1623 100.07C5.25832 97.7691 -1.78666 103.958 0.41158 110.033C11.1164 171.64 21.4898 233.313 32.4105 294.876C34.5176 300.537 41.3079 300.194 46.2205 299.816C94.618 299.692 143.031 300.085 191.419 299.612C197.625 298.137 197.733 290.795 198.498 285.748C208.655 226.196 219.257 166.702 229.112 107.112C228.97 101.762 222.881 98.4806 218.057 100.013C221.638 81.588 226.067 63.2992 229.135 44.814C229.062 38.7307 222.987 34.4445 217.222 34.9916C210.563 34.3107 203.84 32.0796 197.149 33.8007C199.808 27.5571 196.703 18.0621 189.168 17.6013C183.909 17.1855 178.649 17.0021 173.384 16.6516C175.9 9.69501 170.13 1.03246 162.494 1.82158C155.617 1.57863 148.492 -1.22386 141.728 0.982717C135.121 4.19638 135.178 12.2662 134.775 18.5286C134.276 23.6948 133.779 28.8611 133.28 34.0273C131.018 28.307 125.893 22.2981 119.05 23.5577C112.473 24.1804 105.497 22.2071 99.2179 24.715C97.9912 26.178 94.7239 26.7483 94.8237 24.048C93.7899 17.3569 95.2414 9.72767 91.0558 3.9048C89.0506 1.38123 85.8387 -0.195439 82.5927 0.0195314ZM83.2957 4.17087C88.5353 4.41705 90.1948 10.5005 89.8806 14.8555C91.218 32.2865 94.0034 49.6928 94.3136 67.152C92.6134 70.536 87.7589 68.0899 85.5346 70.9188C79.3363 75.7015 82.1019 84.1065 82.5114 90.6399C83.4261 97.6416 84.4039 104.735 83.377 111.787C78.6995 105.796 76.1107 98.4639 73.6887 91.4099C71.886 68.9519 71.0779 46.3504 68.6213 23.9969C67.3628 20.215 63.9778 17.3043 60.0955 16.4773C58.0952 12.2029 60.7291 5.73724 66.0058 6.05258C71.7702 5.44091 77.5241 4.68621 83.2957 4.17087ZM146.191 4.17784C153.063 5.34822 160.371 4.81769 166.962 7.14873C170.599 9.55281 171.03 16.9406 165.829 17.6973C160.076 20.7369 159.443 27.7784 159.524 33.5485C158.674 45.7941 157.827 58.04 156.975 70.2856C151.387 67.8829 142.485 69.0569 140.989 75.902C138.804 85.6793 138.18 95.7114 136.425 105.562C135.451 111.061 135.559 117.118 133.103 122.165C131.319 124.066 129.436 121.325 129.734 119.481C129.503 108.863 131.671 98.3283 132.296 87.7414C134.913 61.3715 137.1 34.9167 140.178 8.61733C141.072 6.14459 143.467 4.06749 146.191 4.17784ZM170.683 20.6856C177.385 21.5385 184.453 20.5266 190.951 22.4644C195.703 25.617 193.163 31.9684 192.873 36.5142C192.287 41.4957 191.702 46.4773 191.115 51.4587C185.171 51.2242 177.08 49.2971 173.059 55.0361C169.44 60.1422 171.105 66.4003 169.899 72.2003C167.04 71.1835 161.926 72.4275 161.054 68.4673C162.767 54.1499 162.717 39.4846 164.598 25.1437C165.514 22.6476 167.938 20.592 170.683 20.6856ZM58.4701 20.681C63.6611 20.6019 65.9255 26.5897 65.3204 30.9834C65.8514 43.5801 67.8239 56.2421 67.3537 68.8391C66.2735 71.3438 63.6358 68.9646 63.2895 67.202C61.3372 62.66 59.8413 56.885 54.3071 55.4939C50.254 53.8249 46.2263 55.6678 42.8581 57.806C39.9635 59.2081 37.8102 55.9429 38.1188 53.3352C37.9638 44.1233 35.0789 34.8759 35.7184 25.6293C37.0578 21.512 41.9775 21.1376 45.6006 21.4134C49.8905 21.1702 54.1801 20.92 58.4701 20.681ZM115.799 27.6324C119.559 27.8033 124.885 26.8821 126.666 31.2307C128.536 36.6793 126.56 42.602 127.089 48.2165C126.568 69.4958 126.192 90.8004 125.581 112.064C125.599 114.288 122.399 116.056 121.527 113.371C119.897 107.667 120.641 101.583 120.038 95.7202C119.512 88.5392 119.964 81.2131 118.15 74.2139C115.518 68.2674 108.253 67.0406 102.586 68.6567C99.1284 69.2061 97.4921 65.2566 98.5068 62.4395C98.5044 52.3886 97.4817 42.283 98.0909 32.2473C99.0206 28.4354 103.285 26.9751 106.794 27.7957C109.797 27.803 112.797 27.6464 115.799 27.6324ZM202.733 37.2224C209.288 38.5295 216.322 38.1053 222.595 40.4582C226.849 43.7641 224.036 49.5725 223.348 53.8067C220.161 69.2301 216.974 84.6535 213.788 100.077C210.522 98.4848 205.784 101.81 203.282 98.4817C202.599 94.6605 204.171 90.6442 204.313 86.7736C205.326 77.5849 207.234 68.4207 207.235 59.2095C206.141 53.9181 200.297 50.7763 195.173 51.8213C196.394 47.2583 194.729 40.5993 199.672 37.8615C200.617 37.4087 201.682 37.1377 202.733 37.2224ZM26.736 37.2096C31.2162 37.0895 33.8213 41.9743 33.2515 45.9672C33.838 50.9518 34.4241 55.9364 35.0108 60.921C27.7787 61.6158 22.519 70.3343 26.5442 76.7239C29.873 84.5487 33.9565 92.0207 37.3822 99.8016C30.0396 99.8016 22.697 99.8016 15.3543 99.8016C11.8142 81.3115 7.21018 62.9445 4.2957 44.3632C4.77588 40.1192 9.57406 38.7572 13.1947 38.9658C17.709 38.3866 22.2147 37.7221 26.736 37.2096ZM181.158 55.1151C187.666 55.9669 194.645 54.7781 200.925 56.8626C205.163 60.002 202.396 65.7181 202.265 69.9659C201.005 79.9111 199.747 89.8566 198.485 99.8016C189.927 99.8016 181.37 99.8016 172.812 99.8016C173.14 92.5332 176.757 85.4681 175.113 78.2327C172.736 73.6281 175.173 68.6691 174.672 63.8372C174.579 59.8796 176.579 55.0843 181.158 55.1151ZM51.0887 59.0585C56.3792 59.1635 58.0785 65.1851 59.5576 69.2422C66.2856 85.9281 73.9883 102.274 79.9553 119.241C80.3194 121.602 77.2471 121.471 76.2884 119.92C70.923 115.052 68.9594 107.793 65.1194 101.934C60.2756 97.9196 53.5442 100.528 47.8308 99.8248C44.6806 100.416 40.1928 99.5268 40.0231 95.577C36.6485 87.586 31.8406 80.1259 29.32 71.8204C29.059 67.1682 34.0585 65.1512 37.776 64.1916C42.1787 62.4325 46.3655 59.868 51.0887 59.0585ZM108.957 72.2352C113.907 72.4128 115.783 78.1464 115.182 82.3229C116.14 100.692 117.1 119.062 118.058 137.431C108.706 138.006 99.1973 136.064 90.8954 131.697C89.357 113.686 86.7439 95.7041 85.8413 77.6692C86.7671 73.4554 91.681 72.4453 95.3472 72.931C99.8835 72.6999 104.419 72.4291 108.957 72.2352ZM150.124 73.3111C156.464 74.6747 163.622 74.3504 169.618 77.1208C173.51 80.6747 170.376 86.2318 170.019 90.5067C169.12 93.8564 170.189 99.4871 165.767 100.716C160.948 103.929 160.761 110.511 157.093 114.722C152.064 122.405 144.789 128.405 136.723 132.687C139.733 113.845 141.681 94.7572 145.282 76.0577C146.242 74.369 148.169 73.2131 150.124 73.3111ZM170.79 103.794C182.081 104.394 193.45 103.742 204.78 103.934C210.9 104.159 217.285 103.525 223.232 104.515C226.794 107.141 223.661 111.783 223.679 115.186C219.275 140.741 214.868 166.296 210.464 191.851C199.621 192.208 188.562 191.206 177.881 192.348C176.129 194.025 178.303 196.968 180.497 196.029C190.246 196.029 199.995 196.029 209.744 196.029C207.923 206.581 206.106 217.132 204.285 227.683C195.699 228.071 186.882 227.019 178.468 228.182C176.714 229.86 178.889 232.806 181.085 231.866C188.58 231.866 196.074 231.866 203.569 231.866C199.767 252.546 196.829 273.54 192.515 294.064C189.601 297.375 184.913 294.867 181.224 295.654C133.631 295.504 85.9486 295.962 38.4116 295.419C34.3729 293.29 36.1451 288.008 34.7088 284.477C31.6876 266.95 28.6658 249.423 25.645 231.895C33.9866 231.482 42.5103 232.558 50.7297 231.39C52.4907 229.718 50.3163 226.761 48.119 227.702C40.3864 227.702 32.6538 227.702 24.9212 227.702C23.1031 217.151 21.284 206.601 19.4639 196.05C30.1118 195.671 40.9367 196.702 51.464 195.548C53.2148 193.871 51.0359 190.929 48.844 191.865C38.8097 191.865 28.7755 191.865 18.7412 191.865C14.0579 163.454 8.53598 135.094 4.3689 106.651C5.68029 102.368 11.2688 104.394 14.4353 103.984C30.0203 104.143 45.7886 103.529 61.2655 104.322C64.6316 106.769 64.543 111.526 67.112 114.61C78.6986 134.72 103.757 145.681 126.241 140.48C144.298 136.701 160.149 122.889 166.515 105.514C167.551 104.254 169.209 103.768 170.79 103.794Z" fill="black"/>
</svg>
