<svg width="89" height="51" viewBox="0 0 89 51" fill="none" xmlns="http://www.w3.org/2000/svg">
<path d="M88.1937 37.3635V41.3652C88.1937 46.1247 84.3358 49.9848 79.5742 49.9848H9.43506C4.67348 49.9848 0.813416 46.1247 0.813416 41.3652V37.3635C0.813416 35.5522 2.28332 34.0823 4.09468 34.0823H4.26541H23.3846L29.943 40.6406L36.5013 34.0823H84.7417H84.9146C86.7259 34.0823 88.1937 35.5522 88.1937 37.3635Z" fill="#F7B239"/>
<path d="M88.1937 17.0595C88.1937 18.873 86.7259 20.3408 84.9146 20.3408H84.7417H4.26541H4.09468C3.189 20.3408 2.36869 19.9744 1.77531 19.381C1.18193 18.7876 0.813416 17.9673 0.813416 17.0595C0.813416 9.80161 5.55834 3.65131 12.1167 1.54431L21.0236 10.4512C22.6101 12.0356 25.1793 12.0356 26.7658 10.4512C28.3502 8.8647 28.3502 6.29548 26.7658 4.70898L22.8204 0.76355H34.7712L44.4588 10.4512C46.0453 12.0356 48.6145 12.0356 50.201 10.4512C51.7854 8.8647 51.7854 6.29548 50.201 4.70898L46.2556 0.76355H58.2064L67.894 10.4512C69.4785 12.0356 72.0498 12.0356 73.6362 10.4512C75.2207 8.8647 75.2207 6.29548 73.6362 4.70898L69.6908 0.76355H71.8978C76.397 0.76355 80.4715 2.5874 83.4217 5.53554C86.3699 8.48577 88.1937 12.5582 88.1937 17.0595Z" fill="#F7B239"/>
<path d="M23.3159 49.9848H9.43507C4.67348 49.9848 0.813416 46.1247 0.813416 41.3652V37.3635C0.813416 35.5522 2.28332 34.0823 4.09468 34.0823H17.9755C16.1642 34.0823 14.6943 35.5522 14.6943 37.3635V41.3652C14.6943 46.1247 18.5543 49.9848 23.3159 49.9848Z" fill="#E09B2D"/>
<path d="M15.6561 19.3811C16.2495 19.9745 17.0698 20.3409 17.9755 20.3409H4.09468C3.189 20.3409 2.36869 19.9745 1.77531 19.3811C1.18193 18.7877 0.813416 17.9674 0.813416 17.0597C0.813416 9.80173 5.55834 3.65144 12.1167 1.54443L17.911 7.3387C15.8893 10.0537 14.6942 13.4161 14.6942 17.0597C14.6942 17.9674 15.0628 18.7877 15.6561 19.3811Z" fill="#E09B2D"/>
<path d="M32.7141 10.897C31.1297 12.0192 28.9207 11.8693 27.5028 10.4514L17.8173 0.765869C22.2416 0.815838 26.2411 2.62928 29.1497 5.53578C30.6696 7.05566 31.8896 8.87535 32.7141 10.897Z" fill="#F7B239"/>
<path d="M17.8173 0.765631C17.7528 0.763549 17.6903 0.76355 17.6258 0.76355H17.8153L17.8173 0.765631Z" fill="#F7B239"/>
<path d="M84.7418 27.2114V34.0821H36.5013L43.3699 27.2114H84.7418Z" fill="#9AD14B"/>
<path d="M84.7418 20.3411V27.2117H43.37H16.514H4.26544V20.3411H84.7418Z" fill="#F95428"/>
<path d="M14.5082 20.3411V27.2117H9.24251H5.82425H4.26544V20.3411H14.5082Z" fill="#E54728"/>
<path d="M73.6363 4.70898C75.2207 6.29548 75.2207 8.8647 73.6363 10.4512C72.0498 12.0356 69.4785 12.0356 67.8941 10.4512L58.2065 0.76355H69.6909L73.6363 4.70898Z" fill="#B27214"/>
<path d="M50.201 4.70898C51.7854 6.29548 51.7854 8.8647 50.201 10.4512C48.6145 12.0356 46.0453 12.0356 44.4588 10.4512L34.7712 0.76355H46.2556L50.201 4.70898Z" fill="#B27214"/>
<path d="M43.3699 27.2114L36.5013 34.0821L29.943 40.6405L23.3846 34.0821L16.5139 27.2114H43.3699Z" fill="#F4DE3B"/>
<path d="M26.7657 4.70898C28.3501 6.29548 28.3501 8.8647 26.7657 10.4512C25.1792 12.0356 22.61 12.0356 21.0235 10.4512L12.1166 1.54431C13.6906 1.03629 15.3688 0.76355 17.1114 0.76355H22.8203L26.7657 4.70898Z" fill="#B27214"/>
<path d="M23.3846 34.0821H4.26544V27.2114H16.514L23.3846 34.0821Z" fill="#9AD14B"/>
<path d="M14.5082 26.8647V33.7354H9.24251H5.82425H4.26544V26.8647H14.5082Z" fill="#90BC42"/>
<path d="M83.1103 16.0212C82.3989 16.0212 81.756 15.532 81.5898 14.8091C81.1753 13.0056 80.2563 11.3519 78.9321 10.0267C78.7987 9.89343 78.6602 9.76247 78.5215 9.63859C77.8786 9.06395 77.8232 8.07687 78.3979 7.43373C78.9727 6.7908 79.9596 6.73542 80.6027 7.31006C80.7841 7.47225 80.965 7.64318 81.1401 7.81807C82.88 9.55927 84.0878 11.7346 84.6335 14.1097C84.8267 14.9503 84.3019 15.7883 83.4613 15.9813C83.3439 16.0083 83.2263 16.0212 83.1103 16.0212ZM63.9801 14.8709C63.5805 14.8709 63.1808 14.7185 62.876 14.4135L59.094 10.6315C58.4842 10.0217 58.4842 9.03293 59.094 8.42332C59.7038 7.81349 60.6926 7.81329 61.3022 8.42332L65.0842 12.2053C65.694 12.8151 65.694 13.8039 65.0842 14.4135C64.7792 14.7185 64.3796 14.8709 63.9801 14.8709ZM39.8401 14.1664C39.4406 14.1664 39.0408 14.014 38.736 13.7089L34.8836 9.85658C34.2738 9.24676 34.2738 8.25801 34.8836 7.64839C35.4935 7.03856 36.4822 7.03856 37.0918 7.64839L40.9442 11.5008C41.554 12.1106 41.554 13.0993 40.9442 13.7089C40.6394 14.0138 40.2396 14.1664 39.8401 14.1664Z" fill="white"/>
<path d="M32.7876 7.11388C33.65 7.11388 34.3491 6.41476 34.3491 5.55236C34.3491 4.68996 33.65 3.99084 32.7876 3.99084C31.9252 3.99084 31.2261 4.68996 31.2261 5.55236C31.2261 6.41476 31.9252 7.11388 32.7876 7.11388Z" fill="white"/>
<path d="M57.2166 8.08544C58.079 8.08544 58.7782 7.38632 58.7782 6.52392C58.7782 5.66152 58.079 4.9624 57.2166 4.9624C56.3542 4.9624 55.6551 5.66152 55.6551 6.52392C55.6551 7.38632 56.3542 8.08544 57.2166 8.08544Z" fill="white"/>
<path d="M83.9241 44.3413C83.0617 44.3413 82.3626 43.6421 82.3626 42.7797V38.6157C82.3626 37.7533 83.0617 37.0542 83.9241 37.0542C84.7865 37.0542 85.4856 37.7533 85.4856 38.6157V42.7797C85.4856 43.6421 84.7865 44.3413 83.9241 44.3413Z" fill="white"/>
<path d="M68.6606 0.00537752C51.0957 0.105839 33.5266 -0.0323304 15.9611 0.0631211C8.04867 0.460206 0.932219 7.17726 0.181677 15.137C-0.176616 17.1377 0.206346 19.7088 2.26695 20.6259C3.11562 20.7472 3.84197 21.4867 3.53769 22.3745C3.5373 26.0359 3.53682 29.6974 3.53651 33.3588C1.07912 33.6758 -0.353104 36.3354 0.0753087 38.6377C-0.158341 41.8581 0.257334 45.4384 2.62643 47.7845C4.91443 50.2766 8.47243 51.0476 11.7308 50.7124C34.7361 50.673 57.7454 50.7951 80.7482 50.6481C85.6185 50.1282 89.4585 45.3106 88.9083 40.4653C88.9626 38.3037 89.3067 35.5421 87.2903 34.1021C86.5306 33.6435 85.1152 33.4337 85.4702 32.1946C85.4704 28.4839 85.4708 24.7733 85.471 21.0627C88.048 20.7351 89.4868 17.8042 88.8498 15.4209C88.214 7.23826 80.828 0.153868 72.5905 0.0757271C71.2857 -0.00189319 69.9772 -0.00754622 68.6607 0.00537752H68.6606ZM72.7031 1.44002C77.2588 1.76181 81.635 4.06642 84.3596 7.75603C86.4252 10.5058 87.6682 14.0045 87.4147 17.4578C87.2589 19.0219 85.6389 19.7562 84.2238 19.6602C74.9477 19.5253 65.6587 19.6535 56.3771 19.6113C38.7653 19.5965 21.1464 19.6681 3.53894 19.5548C1.7688 19.2107 1.21534 17.1225 1.60697 15.5783C2.11118 9.68216 6.32812 4.30793 11.917 2.37856C15.2019 5.47816 18.1464 8.96835 21.6424 11.8233C24.4569 13.4229 28.4984 11.3429 28.6696 8.05573C28.8912 5.87794 27.4619 3.9692 25.7596 2.78764C25.0426 2.25536 25.6725 1.33142 26.4391 1.46361C29.1604 1.60654 31.8997 1.29342 34.6107 1.63562C38.1451 4.9818 41.3249 8.72071 45.0732 11.8204C47.9058 13.4102 51.914 11.3641 52.1033 8.06549C52.3573 5.80227 50.7977 3.93887 49.101 2.68313C48.4555 2.04856 49.3007 1.31802 49.9932 1.45791C52.6752 1.62045 55.3749 1.28613 58.0464 1.63562C61.5332 4.97223 64.7329 8.61753 68.3931 11.755C71.207 13.4582 75.3116 11.4283 75.5321 8.10778C75.8389 5.79442 74.194 3.96803 72.5535 2.6201C72.0471 2.29902 71.9059 1.45565 72.7031 1.44002ZM20.5009 1.46889C21.5839 1.48524 22.8185 1.37831 23.4246 2.45311C24.8158 3.96447 27.1214 5.25547 27.2423 7.53604C27.3169 9.89226 24.5111 11.7866 22.4121 10.5387C20.6114 9.50817 19.5878 7.67501 18.0052 6.40186C16.4811 4.87807 14.9574 3.3539 13.433 1.8304C15.7803 1.40615 18.1303 1.52197 20.5009 1.46889ZM43.1839 1.47097C44.3815 1.62196 45.9648 1.13335 46.7128 2.30582C48.1131 3.86717 50.4469 5.12923 50.6752 7.42507C50.8348 9.81111 48.0038 11.8023 45.867 10.5485C44.0645 9.5371 43.0241 7.66811 41.4406 6.40187C39.8039 4.76515 38.1671 3.12843 36.5304 1.49171C38.7489 1.50716 40.9656 1.50791 43.1839 1.47098V1.47097ZM66.6193 1.47097C67.8169 1.62196 69.4001 1.13335 70.1481 2.30582C71.5484 3.86712 73.8823 5.1293 74.1105 7.42507C74.2713 9.81997 71.4201 11.812 69.2832 10.5392C67.4991 9.53592 66.4631 7.65461 64.8755 6.40184C63.2389 4.76514 61.6024 3.12837 59.9658 1.49171C62.1842 1.50716 64.401 1.50791 66.6193 1.47098V1.47097ZM5.41113 21.07C31.6119 21.07 57.8127 21.07 84.0135 21.07C84.0135 22.874 84.0135 24.678 84.0135 26.482C57.6739 26.482 31.3343 26.482 4.99472 26.482C4.99472 24.678 4.99472 22.874 4.99472 21.07H5.20293H5.41113ZM5.41032 27.9403C9.01102 27.9403 12.6117 27.9403 16.2124 27.9403C18.0166 29.7444 19.8207 31.5486 21.6249 33.3527C16.0812 33.3527 10.5376 33.3527 4.99391 33.3527C4.99391 31.5486 4.99391 29.7444 4.99391 27.9403H5.20211H5.41032ZM19.2789 27.9403C26.7228 27.9403 34.1667 27.9403 41.6106 27.9403C37.7213 31.8299 33.8321 35.7197 29.9428 39.6093C26.0531 35.7196 22.1634 31.83 18.2737 27.9403C18.6088 27.9403 18.9439 27.9403 19.2789 27.9403ZM44.0164 27.9403C57.3485 27.9403 70.6806 27.9403 84.0127 27.9403C84.0127 29.7444 84.0127 31.5486 84.0127 33.3527C68.7471 33.3527 53.4816 33.3527 38.216 33.3527C40.2341 31.6646 41.8096 29.3258 44.0164 27.9403ZM67.2789 34.8024C73.4225 34.8569 79.5919 34.7143 85.7198 34.9337C87.3645 35.4415 87.6979 37.398 87.4826 38.8774C87.6703 41.7602 87.3418 45.0146 85.0492 47.0603C83.0165 49.0747 79.9988 49.5136 77.2636 49.2548C54.2585 49.2036 31.247 49.3617 8.24585 49.1728C4.07328 48.6349 0.915139 44.3268 1.59151 40.1843C1.51994 38.4941 1.06518 36.1646 2.83503 35.1436C4.51452 34.3757 6.47334 35.0228 8.25276 34.8101C13.1944 34.8101 18.1361 34.8101 23.0778 34.8101C25.3689 36.9349 27.383 39.4121 29.8184 41.3437C31.0741 41.1968 31.5187 39.7203 32.5327 39.0986C34.0789 37.7059 35.3599 35.8504 37.1477 34.8101C47.1914 34.8275 57.2351 34.8022 67.2789 34.8024Z" fill="#333333"/>
</svg>
